<svg width="18" height="18" viewBox="0 0 18 18" fill="none" xmlns="http://www.w3.org/2000/svg">
<path d="M9.20578 6.74359C10.7918 6.74359 12.0776 5.45784 12.0776 3.87179C12.0776 2.28575 10.7918 1 9.20578 1C7.61973 1 6.33398 2.28575 6.33398 3.87179C6.33398 5.45784 7.61973 6.74359 9.20578 6.74359Z" stroke="#285430" stroke-width="1.64103" stroke-linecap="round" stroke-linejoin="round"/>
<path d="M1 16.1793C1 12.5539 4.30626 9.61523 8.38462 9.61523" stroke="#285430" stroke-width="1.64103" stroke-linecap="round" stroke-linejoin="round"/>
<path d="M13.3075 16.9998C15.3467 16.9998 16.9998 15.3467 16.9998 13.3075C16.9998 11.2683 15.3467 9.61523 13.3075 9.61523C11.2683 9.61523 9.61523 11.2683 9.61523 13.3075C9.61523 15.3467 11.2683 16.9998 13.3075 16.9998Z" stroke="#285430" stroke-width="1.64103"/>
<path d="M12.8965 12.0771V13.7182H14.5375" stroke="#285430" stroke-width="1.64103" stroke-linecap="round" stroke-linejoin="round"/>
</svg>
