<svg width="57" height="65" viewBox="0 0 57 65" fill="none" xmlns="http://www.w3.org/2000/svg">
<g clip-path="url(#clip0_46_997)">
<path d="M28.3028 32.3783C32.5921 32.3783 36.7058 30.6743 39.7388 27.6413C42.7719 24.6083 44.4758 20.4946 44.4758 16.2052C44.4758 11.9159 42.7719 7.80222 39.7388 4.76919C36.7058 1.73616 32.5921 0.0322266 28.3028 0.0322266C24.0134 0.0322266 19.8998 1.73616 16.8667 4.76919C13.8337 7.80222 12.1298 11.9159 12.1298 16.2052C12.1298 20.4946 13.8337 24.6083 16.8667 27.6413C19.8998 30.6743 24.0134 32.3783 28.3028 32.3783ZM16.173 39.3529C6.82299 42.0947 0 50.7371 0 60.9716C0 63.0438 1.68048 64.7243 3.75265 64.7243H52.8529C54.9251 64.7243 56.6056 63.0438 56.6056 60.9716C56.6056 50.7371 49.7826 42.0947 40.4325 39.3529V45.7715C43.9198 46.6686 46.4974 49.8401 46.4974 53.6053V58.6594C46.4974 59.7713 45.5877 60.681 44.4758 60.681H42.4542C41.3423 60.681 40.4325 59.7713 40.4325 58.6594C40.4325 57.5475 41.3423 56.6378 42.4542 56.6378V53.6053C42.4542 51.3689 40.6473 49.5621 38.4109 49.5621C36.1745 49.5621 34.3677 51.3689 34.3677 53.6053V56.6378C35.4796 56.6378 36.3893 57.5475 36.3893 58.6594C36.3893 59.7713 35.4796 60.681 34.3677 60.681H32.346C31.2341 60.681 30.3244 59.7713 30.3244 58.6594V53.6053C30.3244 49.8401 32.902 46.6686 36.3893 45.7715V38.5569C35.6312 38.481 34.8604 38.4431 34.077 38.4431H22.5285C21.7451 38.4431 20.9744 38.481 20.2163 38.5569V46.8202C23.135 47.6921 25.2703 50.396 25.2703 53.6053C25.2703 57.5096 22.0989 60.681 18.1946 60.681C14.2904 60.681 11.1189 57.5096 11.1189 53.6053C11.1189 50.396 13.2543 47.6921 16.173 46.8202V39.3529ZM18.1946 56.6378C18.9989 56.6378 19.7702 56.3183 20.3389 55.7496C20.9076 55.1809 21.2271 54.4096 21.2271 53.6053C21.2271 52.8011 20.9076 52.0298 20.3389 51.4611C19.7702 50.8924 18.9989 50.5729 18.1946 50.5729C17.3904 50.5729 16.6191 50.8924 16.0504 51.4611C15.4817 52.0298 15.1622 52.8011 15.1622 53.6053C15.1622 54.4096 15.4817 55.1809 16.0504 55.7496C16.6191 56.3183 17.3904 56.6378 18.1946 56.6378Z" fill="#7EB36A"/>
</g>
<defs>
<clipPath id="clip0_46_997">
<rect width="56.6056" height="64.6921" fill="white" transform="translate(0 0.0322266)"/>
</clipPath>
</defs>
</svg>
