<svg width="106" height="106" viewBox="0 0 106 106" fill="none" xmlns="http://www.w3.org/2000/svg">
<rect width="105.779" height="105.779" rx="12.6935" fill="#F3F6F9"/>
<g clip-path="url(#clip0_62_1289)">
<path d="M81.4521 100.859L79.6053 86.0845C79.3265 83.8544 77.792 81.9825 75.66 81.2717L68.5387 78.8979C67.5608 78.5718 66.488 78.7795 65.7339 79.4221L63.6362 78.7228C62.4447 78.3256 61.641 77.2106 61.641 75.9545V71.2488L67.9259 68.6301C71.1881 67.2712 73.313 64.0838 73.313 60.5497V59.0907C75.7304 59.0907 77.69 57.131 77.69 54.7136C77.69 53.6232 77.2904 52.6267 76.6308 51.8603C77.8693 47.3523 81.3503 33.0926 77.69 26.9923L79.149 21.1562C79.149 21.1562 63.8294 21.521 55.8048 24.0743L58.7228 21.1562C58.7228 21.1562 38.2054 21.1562 33.9208 28.4501L33.9195 28.4513C33.9195 28.4513 26.6244 28.3906 26.6244 37.2054C26.6244 40.4317 28.424 48.4876 29.1965 51.7983C28.5048 52.5723 28.0835 53.5936 28.0835 54.7136C28.0835 57.131 30.0431 59.0907 32.4605 59.0907V60.5497C32.4605 64.0836 34.5854 67.271 37.8476 68.6305L44.1326 71.2492V75.9547C44.1326 77.2107 43.3289 78.3258 42.1374 78.723L40.0397 79.4222C39.2856 78.7797 38.2129 78.572 37.235 78.8981L30.1137 81.2719C27.9815 81.9826 26.447 83.8546 26.1683 86.0847L24.3216 100.859C23.9949 103.472 26.0319 105.779 28.6647 105.779H28.7057H77.0677H77.1088C79.7416 105.779 81.7787 103.472 81.4521 100.859Z" fill="#FFD7A3"/>
<path d="M61.6461 71.249L44.1379 71.2492V75.9547C44.1379 77.005 43.5568 77.93 42.6758 78.4458C54.9122 80.5875 61.6461 71.249 61.6461 71.249Z" fill="#FDC88E"/>
<path d="M29.5469 53.2546C29.5469 53.2546 26.6289 41.3137 26.6289 37.2054C26.6289 28.3906 33.924 28.4513 33.924 28.4513L33.9253 28.4501C38.2098 21.1562 58.7273 21.1562 58.7273 21.1562L55.8092 24.0743C63.8338 21.521 79.1535 21.1562 79.1535 21.1562L77.6945 26.9923C82.0715 34.2874 76.2355 53.2546 76.2355 53.2546H29.5469Z" fill="#734A3E"/>
<path d="M58.7273 21.1562C58.7273 21.1562 38.2098 21.1562 33.9253 28.4501L33.924 28.4513C33.924 28.4513 26.6289 28.3906 26.6289 37.2054C26.6289 41.3137 29.5469 53.2546 29.5469 53.2546C29.5469 53.2546 59.8824 39.698 79.1535 21.1562C79.1535 21.1562 63.8338 21.521 55.8092 24.0743L58.7273 21.1562Z" fill="#623F33"/>
<path d="M73.3174 50.3371V47.4191C73.3174 43.3902 70.0512 40.124 66.0223 40.124H39.76C35.7311 40.124 32.4649 43.3902 32.4649 47.4191V50.3371C30.0475 50.3371 28.0879 52.2968 28.0879 54.7142C28.0879 57.1316 30.0475 59.0912 32.4649 59.0912V60.5502C32.4649 64.0842 34.5898 67.2716 37.852 68.631L47.2792 72.559C49.0574 73.3 50.9647 73.6814 52.891 73.6814C54.8172 73.6814 56.7244 73.2999 58.5025 72.559L67.9303 68.6308C71.1925 67.2718 73.3174 64.0844 73.3174 60.5502V59.0912C75.7348 59.0912 77.6944 57.1316 77.6944 54.7142C77.6944 52.2968 75.7348 50.3371 73.3174 50.3371Z" fill="#FFE1B2"/>
<path d="M42.6797 56.1729C41.8773 56.1729 41.2207 55.5164 41.2207 54.7139V53.2549C41.2207 52.4525 41.8773 51.7959 42.6797 51.7959C43.4822 51.7959 44.1387 52.4525 44.1387 53.2549V54.7139C44.1387 55.5164 43.4822 56.1729 42.6797 56.1729Z" fill="#623F33"/>
<path d="M63.1035 56.1729C62.3011 56.1729 61.6445 55.5164 61.6445 54.7139V53.2549C61.6445 52.4525 62.3011 51.7959 63.1035 51.7959C63.906 51.7959 64.5626 52.4525 64.5626 53.2549V54.7139C64.5626 55.5164 63.906 56.1729 63.1035 56.1729Z" fill="#623F33"/>
<path d="M52.893 66.4261C50.299 66.4261 47.8727 65.7877 46.2362 64.6743C45.5702 64.2213 45.3969 63.3136 45.8508 62.6476C46.3031 61.9823 47.2115 61.809 47.8776 62.2622C49.0246 63.0422 50.8996 63.5082 52.893 63.5082C54.8863 63.5082 56.7614 63.0422 57.9083 62.2622C58.5758 61.8077 59.4821 61.9815 59.9351 62.6476C60.3888 63.3136 60.2158 64.2213 59.5497 64.6743C57.9134 65.7877 55.4869 66.4261 52.893 66.4261Z" fill="#E4B07B"/>
<path d="M81.4521 100.859L79.6053 86.0845C79.3267 83.8544 77.792 81.9824 75.66 81.2717L68.5387 78.8979C67.2985 78.4845 65.9034 78.926 65.2028 80.0297C62.6164 84.1048 58.0706 86.8118 52.8867 86.8118C47.7029 86.8118 43.1571 84.1046 40.5708 80.0297C39.8703 78.926 38.4751 78.4845 37.235 78.8979L30.1137 81.2717C27.9815 81.9824 26.447 83.8544 26.1683 86.0845L24.3216 100.859C23.9949 103.472 26.0321 105.779 28.6649 105.779H77.109C79.7416 105.779 81.7787 103.472 81.4521 100.859Z" fill="#00BEA4"/>
<path d="M27.3846 83.1953C26.7368 84.0155 26.3031 85.0063 26.1683 86.0847L24.3216 100.859C23.9949 103.472 26.0321 105.779 28.6649 105.779H36.8376V96.2836C36.8376 94.8798 36.3316 93.5233 35.4127 92.4623L27.3846 83.1953Z" fill="#00AB9A"/>
<path d="M78.3924 83.1953C79.0402 84.0155 79.4739 85.0063 79.6087 86.0847L81.4554 100.859C81.7821 103.472 79.7449 105.779 77.1121 105.779H68.9395V96.2836C68.9395 94.8798 69.4454 93.5233 70.3644 92.4623L78.3924 83.1953Z" fill="#00AB9A"/>
<path d="M40.124 65.6063C38.9419 64.3388 38.3012 62.6662 38.3012 60.9329V44.3986C42.9451 44.0504 57.5865 42.7842 66.0225 40.124H39.76C39.2578 40.124 38.7714 40.1826 38.301 40.2847V40.271C34.9713 40.9471 32.4649 43.8899 32.4649 47.4191V50.3371C30.0475 50.3371 28.0879 52.2968 28.0879 54.7142C28.0879 57.1316 30.0475 59.0912 32.4649 59.0912V60.5503C32.4649 64.0844 34.5898 67.2718 37.852 68.631L47.2791 72.559C47.7405 72.7513 48.2114 72.9169 48.6883 73.0604C44.5221 70.0125 41.7488 67.3482 40.124 65.6063Z" fill="#FFD7A3"/>
</g>
<defs>
<clipPath id="clip0_62_1289">
<rect width="84.6231" height="84.6231" fill="white" transform="translate(10.5801 21.1562)"/>
</clipPath>
</defs>
</svg>
