<svg width="29" height="30" viewBox="0 0 29 30" fill="none" xmlns="http://www.w3.org/2000/svg">
<rect x="4.83398" y="5.33301" width="8.45833" height="8.45833" rx="1.5" fill="white"/>
<path opacity="0.3" fill-rule="evenodd" clip-rule="evenodd" d="M15.709 6.83301C15.709 6.00458 16.3806 5.33301 17.209 5.33301H22.6673C23.4957 5.33301 24.1673 6.00458 24.1673 6.83301V12.2913C24.1673 13.1198 23.4957 13.7913 22.6673 13.7913H17.209C16.3806 13.7913 15.709 13.1198 15.709 12.2913V6.83301ZM4.83398 17.708C4.83398 16.8796 5.50556 16.208 6.33398 16.208H11.7923C12.6207 16.208 13.2923 16.8796 13.2923 17.708V23.1663C13.2923 23.9948 12.6207 24.6663 11.7923 24.6663H6.33399C5.50556 24.6663 4.83398 23.9948 4.83398 23.1663V17.708ZM17.209 16.208C16.3806 16.208 15.709 16.8796 15.709 17.708V23.1663C15.709 23.9948 16.3806 24.6663 17.209 24.6663H22.6673C23.4957 24.6663 24.1673 23.9948 24.1673 23.1663V17.708C24.1673 16.8796 23.4957 16.208 22.6673 16.208H17.209Z" fill="white"/>
</svg>
