<svg width="25" height="24" viewBox="0 0 25 24" fill="none" xmlns="http://www.w3.org/2000/svg">
<path fill-rule="evenodd" clip-rule="evenodd" d="M23.1448 17.8074C23.4672 18.0977 23.981 17.8676 23.9792 17.4338L23.9618 13.0362V5.93092C23.9618 4.62288 22.7836 3.5625 21.3302 3.5625H9.04955C7.59617 3.5625 6.41797 4.62288 6.41797 5.93092V9.1875H13.6661C15.3229 9.1875 16.6661 10.5306 16.6661 12.1875V15.4046H20.4749L23.1448 17.8074Z" fill="white"/>
<path opacity="0.3" fill-rule="evenodd" clip-rule="evenodd" d="M2.06836 17.625V12.9375C2.06836 11.902 3.0011 11.0625 4.15169 11.0625H12.485C13.6356 11.0625 14.5684 11.902 14.5684 12.9375V17.625C14.5684 18.6605 13.6356 19.5 12.485 19.5H4.27225L2.92193 20.6632C2.59784 20.9424 2.0956 20.7121 2.0956 20.2844V17.929C2.07768 17.83 2.06836 17.7285 2.06836 17.625ZM6.25059 14.3437C6.25059 14.0849 6.46045 13.875 6.71934 13.875H12.0318C12.2907 13.875 12.5006 14.0849 12.5006 14.3437C12.5006 14.6026 12.2907 14.8125 12.0318 14.8125H6.71934C6.46045 14.8125 6.25059 14.6026 6.25059 14.3437ZM9.84433 15.75C9.58545 15.75 9.37559 15.9599 9.37559 16.2188C9.37559 16.4776 9.58545 16.6875 9.84433 16.6875H12.0318C12.2907 16.6875 12.5006 16.4776 12.5006 16.2188C12.5006 15.9599 12.2907 15.75 12.0318 15.75H9.84433Z" fill="white"/>
</svg>
