<svg width="70" height="69" viewBox="0 0 70 69" fill="none" xmlns="http://www.w3.org/2000/svg">
<path fill-rule="evenodd" clip-rule="evenodd" d="M30.6041 13.2673C24.4304 9.79245 18.9609 11.4264 14.4148 16.9458C10.0271 22.273 13.0186 31.8754 15.1691 38.7781C15.6818 40.424 16.1468 41.9165 16.4524 43.1608C18.0402 49.6241 19.5593 53.6516 23.0231 56.5665C24.7386 58.0098 26.6837 55.5294 28.7358 52.9123C30.515 50.6434 32.3747 48.2719 34.2348 48.2662C36.0647 48.2607 37.8949 50.6285 39.6494 52.8982C41.6746 55.5183 43.5991 58.0077 45.3054 56.5665C47.9511 54.3319 49.1527 52.6924 50.6064 48.0887C52.1918 43.0683 54.7517 37.0645 56.7868 30.144C58.2188 25.2747 58.3903 20.3175 54.2634 15.5324C48.3714 8.70069 40.2048 12.2294 36.4032 14.4889L41.5525 18.9031C42.1493 19.4147 42.2185 20.3133 41.7068 20.9101C41.1952 21.5069 40.2966 21.5761 39.6998 21.0644L30.6041 13.2673Z" fill="black"/>
</svg>
