<svg width="69" height="69" viewBox="0 0 69 69" fill="none" xmlns="http://www.w3.org/2000/svg">
<path fill-rule="evenodd" clip-rule="evenodd" d="M8.54883 13.2009C8.54883 10.8425 10.4607 8.93066 12.819 8.93066H55.5209C57.8794 8.93066 59.7911 10.8425 59.7911 13.2009V55.9028C59.7911 58.2612 57.8794 60.173 55.5209 60.173H55.5142V54.2186C55.5692 52.6153 55.2858 51.0177 54.6803 49.5181C54.0748 48.0187 53.1592 46.6473 51.9866 45.4832C50.8142 44.3192 49.408 43.3858 47.8495 42.7369C47.08 42.4165 46.2811 42.1687 45.4642 41.9959C44.6267 41.8187 43.7702 41.7203 42.9078 41.7034H41.0836V40.0191H41.8461C42.2061 40.0191 42.562 39.9814 42.9078 39.9083L42.9432 39.9007C43.6522 39.7455 44.3179 39.441 44.8884 39.0078C45.018 38.9093 45.1427 38.8041 45.2619 38.6926C46.1696 37.843 46.6832 36.6896 46.6905 35.4846V32.5048C46.6905 32.6285 47.4743 32.5554 47.8504 32.5203C47.947 32.5114 48.0166 32.5048 48.0391 32.5048C48.3745 32.4542 48.6781 32.2885 48.8915 32.0397C49.1045 31.7914 49.2127 31.4778 49.1954 31.159L49.1952 31.1574L49.1935 31.1478C49.1115 30.6704 48.9447 30.2093 48.6997 29.7841L48.0391 28.2036C47.5713 27.1153 47.1034 26.0269 46.663 24.9129C46.663 24.9129 46.3877 22.3217 46.1399 21.4406C45.3721 19.0709 43.8208 16.9936 41.7117 15.5116C39.6027 14.0296 37.0461 13.22 34.4144 13.2009C31.8676 13.1965 29.383 13.9413 27.3078 15.3311C25.2326 16.7209 23.6704 18.6862 22.8396 20.9525C22.0089 23.2189 21.951 25.6729 22.6741 27.9717C23.397 30.2705 24.8649 32.2993 26.8725 33.7745V41.7034H24.5918C21.5298 41.7111 18.5895 42.8383 16.3926 44.8487C14.1808 46.8727 12.8981 49.6313 12.819 52.5343V60.173C10.4607 60.173 8.54883 58.2612 8.54883 55.9028V13.2009ZM52.6674 54.2186V60.173H35.5934V50.2092C35.5934 49.423 34.9561 48.7858 34.17 48.7858C33.3838 48.7858 32.7466 49.423 32.7466 50.2092V60.173H15.6658V52.5761C15.7326 50.4852 16.6608 48.4622 18.3145 46.9489C19.9833 45.4219 22.254 44.5442 24.6476 44.5502H26.8725C28.4448 44.5502 29.7193 43.2755 29.7193 41.7034V33.7745C29.7193 32.8686 29.2882 32.0169 28.5582 31.4804C27.0205 30.3507 25.9247 28.8187 25.3896 27.1176C24.8554 25.4192 24.8975 23.6099 25.5126 21.9324C26.1285 20.2521 27.2984 18.7636 28.8919 17.6964C30.4852 16.6294 32.4115 16.0458 34.4016 16.0476C36.4648 16.0643 38.4521 16.7004 40.0749 17.8408C41.6777 18.9672 42.8325 20.5184 43.4104 22.2531C43.4703 22.4962 43.5718 23.1188 43.6719 23.8788C43.7193 24.2387 43.7595 24.5745 43.7882 24.8212C43.8022 24.944 43.8135 25.0438 43.821 25.1121L43.8296 25.1897L43.832 25.2129C43.8592 25.4687 43.921 25.7202 44.0155 25.9592C44.4714 27.1129 44.9534 28.2338 45.4164 29.3106L45.4181 29.3147L45.6446 29.8563C44.5898 30.2732 43.8437 31.3019 43.8437 32.5048V35.4737C43.8395 35.8676 43.672 36.2814 43.3164 36.6142C42.9532 36.9542 42.4272 37.1723 41.8461 37.1723H41.0836C39.5114 37.1723 38.2368 38.4469 38.2368 40.0191V41.7034C38.2368 43.2755 39.5114 44.5502 41.0836 44.5502H42.8783C44.2196 44.5798 45.5375 44.8579 46.7554 45.3651C47.9811 45.8754 49.0759 46.605 49.9811 47.5036C50.8858 48.4018 51.5827 49.4504 52.0406 50.5841C52.4982 51.7174 52.7103 52.9189 52.6692 54.121C52.668 54.1534 52.6674 54.186 52.6674 54.2186ZM32.7466 47.3624C33.5327 47.3624 34.17 45.7692 34.17 43.8039C34.17 45.7692 34.8072 47.3624 35.5934 47.3624C36.3795 47.3624 37.0168 45.7692 37.0168 43.8039C37.0168 41.8386 36.3795 40.2454 35.5934 40.2454C34.8072 40.2454 34.17 41.8386 34.17 43.8039C34.17 41.8386 33.5327 40.2454 32.7466 40.2454C31.9604 40.2454 31.3232 41.8386 31.3232 43.8039C31.3232 45.7692 31.9604 47.3624 32.7466 47.3624Z" fill="black"/>
</svg>
