<svg width="69" height="69" viewBox="0 0 69 69" fill="none" xmlns="http://www.w3.org/2000/svg">
<path fill-rule="evenodd" clip-rule="evenodd" d="M35.5454 8.78081C35.6123 8.78087 35.6123 8.7809 35.6123 8.78094L35.6075 17.2279C35.6049 21.6459 35.602 26.4536 35.6005 28.0109C35.5995 29.1289 36.0006 29.4776 36.1939 29.6093C36.3289 29.7014 36.4704 29.7537 36.5808 29.7818C36.6341 29.7955 36.6739 29.8017 36.6928 29.8043L36.7032 29.8056L36.6913 29.8047L36.6816 29.8041L36.6756 29.8039L36.6725 29.8037L36.6708 29.8036C36.6699 29.8036 36.6689 29.8036 36.6093 31.2257C36.5498 32.6478 36.5488 32.6478 36.5479 32.6478L36.5421 32.6475L36.5336 32.6471L36.5135 32.6459C36.4988 32.645 36.4816 32.6438 36.4621 32.6421C36.423 32.6388 36.374 32.6338 36.3166 32.6262C36.2025 32.6109 36.052 32.585 35.8771 32.5405C35.5309 32.4522 35.0639 32.2845 34.5903 31.9619C34.4403 31.8595 34.2947 31.7452 34.1555 31.6183C34.0163 31.7452 33.8707 31.8595 33.7206 31.9619C33.2472 32.2845 32.7801 32.4522 32.434 32.5405C32.2591 32.585 32.1087 32.6109 31.9944 32.6262C31.937 32.6338 31.888 32.6388 31.849 32.6421C31.8294 32.6438 31.8122 32.645 31.7975 32.6459L31.7774 32.6471L31.7689 32.6475L31.765 32.6477L31.7631 32.6478C31.7622 32.6478 31.7613 32.6478 31.7017 31.2257C31.6421 29.8036 31.6412 29.8036 31.6404 29.8036L31.6386 29.8037L31.6354 29.8039L31.6294 29.8041L31.6199 29.8047L31.609 29.8054L31.6183 29.8043C31.6372 29.8017 31.6769 29.7955 31.7303 29.7818C31.8406 29.7537 31.9821 29.7014 32.1171 29.6093C32.3105 29.4776 32.7116 29.1289 32.7105 28.0109C32.709 26.4536 32.7062 21.6459 32.7035 17.2279L32.6987 8.7815C32.6987 8.78146 32.6987 8.78087 32.7656 8.78081L12.8171 8.78027C10.4587 8.78027 8.54688 10.6921 8.54688 13.0505V55.7524C8.54688 58.1108 10.4587 60.0226 12.8171 60.0226H55.519C57.8774 60.0226 59.7892 58.1108 59.7892 55.7524V13.0505C59.7892 10.6921 57.8774 8.78027 55.519 8.78027L35.5454 8.78081ZM25.2089 20.5095C30.6618 20.5051 30.5936 27.3945 30.5586 30.9323C30.5559 31.2023 30.5534 31.4533 30.5536 31.6796C30.5542 32.402 30.5866 33.2547 30.6219 34.1863C30.786 38.5099 31.0146 44.533 28.432 47.1128C25.2332 50.308 18.8318 51.9096 15.6281 49.2517C12.4246 46.5938 17.7389 20.5156 25.2089 20.5095ZM37.7121 30.9285C37.6714 27.3908 37.592 20.5014 43.0449 20.497C50.5147 20.4908 55.8718 46.5602 52.6726 49.2234C49.4734 51.8866 43.0692 50.2955 39.8653 47.1054C37.2784 44.5299 37.4972 38.5065 37.6542 34.1826C37.6879 33.251 37.719 32.3981 37.7184 31.6758C37.7183 31.4493 37.7153 31.1986 37.7121 30.9285Z" fill="black"/>
</svg>
