<svg width="69" height="69" viewBox="0 0 69 69" fill="none" xmlns="http://www.w3.org/2000/svg">
<path fill-rule="evenodd" clip-rule="evenodd" d="M20.5498 47.9956C19.3265 48.7465 18.5107 50.0966 18.5107 51.6372C18.5107 53.9956 20.4224 55.9074 22.7808 55.9074C25.1393 55.9074 27.051 53.9956 27.051 51.6372C27.051 49.4679 25.4335 47.6764 23.3387 47.4031C23.292 47.2359 23.2433 47.0432 23.1938 46.827C23.0233 46.0819 22.8606 45.1368 22.7394 44.1661C22.618 43.1934 22.5427 42.2291 22.5377 41.4421C22.5359 41.1536 22.5437 40.9022 22.5597 40.6914C23.1072 40.5343 23.6564 40.3928 24.2042 40.2679C24.8324 40.1249 25.2042 40.8663 25.5054 41.4671C25.5474 41.5508 25.5879 41.6317 25.6276 41.7071H31.4122C32.7157 41.7068 33.3601 41.707 34.0119 41.7071C34.6486 41.7073 35.2934 41.7074 36.5666 41.7071H42.3516C42.6764 41.0901 43.4161 40.105 44.1318 40.2679C44.8952 40.4419 45.6612 40.6483 46.4219 40.8843L46.4172 40.8865C46.4155 40.8833 46.4156 40.8838 46.4174 40.8887C46.424 40.9086 46.4554 41.0017 46.4864 41.2035C46.5218 41.4333 46.5465 41.7319 46.5566 42.0914C46.5768 42.8093 46.5365 43.6818 46.4515 44.561C46.3664 45.4391 46.24 46.2893 46.0977 46.9605C46.0662 47.1091 46.0347 47.2447 46.0039 47.367H44.1318C43.5926 47.367 43.0998 47.6716 42.8587 48.1538L41.4353 51.0006C41.3364 51.1982 41.285 51.4163 41.285 51.6372V54.484C41.285 55.2701 41.9223 55.9074 42.7084 55.9074H45.5552V53.0606H44.1318V51.9732L45.0115 50.2138H48.9457L49.8254 51.9732V53.0606H48.402V55.9074H51.2488C52.0349 55.9074 52.6722 55.2701 52.6722 54.484V51.6372C52.6722 51.4163 52.6208 51.1982 52.5219 51.0006L51.0985 48.1538C50.8574 47.6716 50.3646 47.367 49.8254 47.367H48.9205C49.0726 46.6087 49.1991 45.7227 49.2849 44.8352C49.3779 43.8758 49.4266 42.8802 49.4022 42.0116L49.4011 41.9725C55.077 44.3706 59.7892 48.3151 59.7892 52.4484V60.1776H8.54688V52.4484C8.54688 48.1322 13.6852 44.0219 19.6935 41.6634C19.7097 42.5482 19.7936 43.5497 19.9144 44.5185C20.0449 45.5643 20.2229 46.6059 20.4189 47.4622C20.4609 47.6457 20.5045 47.8243 20.5498 47.9956ZM22.7808 53.0815C23.5472 53.0815 24.2042 52.4545 24.2042 51.6372C24.2042 50.8199 23.5472 50.1929 22.7808 50.1929C22.0145 50.1929 21.3574 50.8199 21.3574 51.6372C21.3574 52.4545 22.0145 53.0815 22.7808 53.0815Z" fill="black"/>
<path fill-rule="evenodd" clip-rule="evenodd" d="M34.1676 34.5547C40.4566 34.5547 45.5547 29.4566 45.5547 23.1676C45.5547 16.8786 40.4566 11.7804 34.1676 11.7804C27.8786 11.7804 22.7804 16.8786 22.7804 23.1676C22.7804 29.4566 27.8786 34.5547 34.1676 34.5547ZM34.1676 37.4015C42.0287 37.4015 48.4015 31.0287 48.4015 23.1676C48.4015 15.3064 42.0287 8.93359 34.1676 8.93359C26.3064 8.93359 19.9336 15.3064 19.9336 23.1676C19.9336 31.0287 26.3064 37.4015 34.1676 37.4015Z" fill="black"/>
</svg>
