<svg width="70" height="69" viewBox="0 0 70 69" fill="none" xmlns="http://www.w3.org/2000/svg">
<path fill-rule="evenodd" clip-rule="evenodd" d="M13.7018 8.93262C11.3435 8.93262 9.43164 10.8445 9.43164 13.2028V55.9047C9.43164 58.2631 11.3435 60.1749 13.7018 60.1749H56.4037C58.7622 60.1749 60.6739 58.2631 60.6739 55.9047V13.2028C60.6739 10.8445 58.7622 8.93262 56.4037 8.93262H13.7018ZM15.8214 23.0456C15.1318 23.7357 14.9414 24.5526 15.3392 25.2534C15.8244 26.1088 16.3644 26.857 16.874 27.4783C16.3726 27.5519 15.9294 27.7679 15.5924 28.1352C15.2247 28.5361 15.0291 29.0676 14.9926 29.6637C14.3093 28.8717 13.5445 27.8594 12.8631 26.6583C11.6191 24.4657 12.5626 22.2791 13.8079 21.0332C14.4393 20.4015 15.2405 19.8999 16.0902 19.6825C16.9392 19.4653 18.0161 19.5033 18.8727 20.2582C20.3598 21.5687 21.0467 21.6818 21.4195 21.7177C21.4831 21.7238 21.5672 21.7253 21.6689 21.7268C22.1967 21.7356 23.1949 21.752 24.224 22.4777L22.5837 24.8044C22.3097 24.6112 22.2559 24.6095 21.9298 24.5998C21.7627 24.5948 21.5238 24.5877 21.1472 24.5514C20.0199 24.4431 18.7973 23.9811 17.0135 22.4142C16.9832 22.4101 16.9164 22.4096 16.7957 22.4405C16.5241 22.51 16.1575 22.7094 15.8214 23.0456ZM17.034 22.4199C17.0336 22.4204 17.0289 22.4196 17.0208 22.4155C17.0303 22.4173 17.0343 22.4193 17.034 22.4199ZM22.6485 30.2972C24.5245 32.0772 25.0477 34.5099 23.8171 35.7308C22.5865 36.9518 20.0681 36.4986 18.1921 34.7186C16.316 32.9386 15.7928 30.5059 17.0235 29.2851C18.2541 28.0641 20.7724 28.5173 22.6485 30.2972ZM53.6129 23.0107C54.2462 23.689 54.4573 24.544 54.0623 25.2893C53.6196 26.1247 53.1285 26.8573 52.6632 27.469C53.1588 27.532 53.5971 27.7505 53.9268 28.1352C54.2862 28.5549 54.4696 29.1174 54.4908 29.7475C55.1541 28.9378 55.9093 27.8836 56.5775 26.6225C57.7161 24.4741 56.8681 22.3256 55.6938 21.0679C55.1012 20.4334 54.3368 19.9155 53.5084 19.6887C52.6683 19.4586 51.5988 19.504 50.765 20.2908C49.3791 21.5981 48.7627 21.688 48.465 21.7186C48.4146 21.7238 48.3442 21.7248 48.2568 21.7261C47.7745 21.7334 46.7747 21.7483 45.7724 22.5049L47.4874 24.777C47.7106 24.6086 47.7267 24.6082 47.99 24.6009C48.1391 24.5968 48.3671 24.5906 48.7565 24.5504C49.8523 24.4377 51.0109 23.9586 52.6622 22.4143C52.6838 22.417 52.7146 22.4229 52.7564 22.4344C52.9754 22.4943 53.3017 22.6775 53.6129 23.0107ZM52.6205 22.4132C52.6209 22.4136 52.6253 22.4138 52.6332 22.4119C52.6241 22.4119 52.6202 22.4128 52.6205 22.4132ZM46.6556 30.2972C44.7796 32.0772 44.2563 34.5099 45.4869 35.7308C46.7175 36.9518 49.2359 36.4986 51.112 34.7186C52.988 32.9386 53.5111 30.5059 52.2806 29.2851C51.0499 28.0641 48.5315 28.5173 46.6556 30.2972ZM29.4264 31.7676C25.571 31.7676 19.7879 20.3198 35.2095 20.3198C50.6312 20.3198 44.2054 31.7676 40.35 31.7676C38.5139 31.7676 38.3726 35.9504 38.2243 40.332C38.1144 43.5838 38.0006 46.9452 37.1879 48.7877C36.9334 49.3646 36.4981 49.1921 36.0143 49.0003C35.7532 48.8968 35.478 48.7877 35.2095 48.7877C34.9539 48.7877 34.6606 48.8867 34.3679 48.9855C33.783 49.1827 33.1994 49.3796 32.9177 48.7877C32.0305 46.9237 31.8536 43.5049 31.6836 40.2179C31.4591 35.878 31.2465 31.7676 29.4264 31.7676Z" fill="black"/>
</svg>
