<svg width="70" height="70" viewBox="0 0 70 70" fill="none" xmlns="http://www.w3.org/2000/svg">
<path d="M29.4526 9.35449H35.1462V13.1177C36.9572 13.0074 38.7126 13.1129 40.2898 13.4458C33.5993 16.0792 30.521 22.8466 30.017 23.9548L29.986 24.0227C28.3511 23.7745 26.5798 23.5681 24.9038 23.5835C23.1766 23.7307 21.5008 23.9859 18.741 25.5404C18.3519 25.8154 17.8272 26.2664 17.1142 26.9542C17.0624 26.9169 17.0069 26.8823 16.9343 26.8369C16.8762 26.8006 16.8069 26.7575 16.7198 26.7006C16.3257 26.4431 15.7502 26.0946 15.0484 25.7466C13.6029 25.0294 11.8296 24.4177 10.0918 24.4177V18.8974C13.0967 18.8974 15.7983 19.9175 17.6419 20.8322C18.2814 21.1495 18.8426 21.4666 19.3071 21.7484C19.718 20.8713 20.2602 20.0556 20.9084 19.3035L17.7818 14.3972L22.7936 11.1425L25.6781 15.6691C26.866 15.0565 28.1403 14.5481 29.4526 14.1486V9.35449Z" fill="black"/>
<path d="M44.7648 21.7252C42.6899 22.687 40.8939 24.268 39.2746 27.3112C39.2746 27.3112 35.6821 25.6683 32.7676 24.8144C35.0044 20.2795 37.6074 17.7279 41.4459 15.9486C45.159 14.2275 49.5886 13.7868 54.8507 13.9687L54.6016 20.7418C49.7463 20.574 46.965 20.7054 44.7648 21.7252Z" fill="black"/>
<path d="M19.8877 28.1675C9.55 37.3883 24.318 60.4402 36.1326 60.4402C47.9471 60.4402 64.2154 37.4088 52.3776 26.8503C52.1044 26.6066 51.8653 26.3874 51.6432 26.1839C50.6648 25.2867 50.0136 24.6897 48.2081 23.6162C44.5752 23.6162 42.3859 27.2503 41.3892 29.4642C41.3385 29.5767 41.2761 29.6816 41.2037 29.7778L38.9061 36.1697L38.0781 39.1421C37.9907 39.4559 38.0135 39.7901 38.1429 40.0892L39.1099 42.3242L44.1174 41.743L44.4457 44.5708L39.7361 45.1175L40.0421 49.6037L37.202 49.7975L36.8201 44.201L35.5302 41.2196C35.1421 40.3226 35.0735 39.3196 35.3356 38.3781L35.3604 38.2893L32.4652 39.5985L30.5722 44.3837L27.925 43.3365L29.4243 39.5469L24.8545 38.4702L25.5072 35.6993L31.2087 37.0425L36.4133 34.6887L38.1635 29.8199C33.6542 27.7014 24.394 24.148 19.8877 28.1675Z" fill="black"/>
</svg>
