<svg width="49" height="44" viewBox="0 0 49 44" fill="none" xmlns="http://www.w3.org/2000/svg">
<path d="M36.5417 31.75L46.125 22.1667M46.125 22.1667L36.5417 12.5833M46.125 22.1667H12.5833M26.9583 31.75V34.1458C26.9583 36.0521 26.2011 37.8802 24.8532 39.2282C23.5052 40.5761 21.6771 41.3333 19.7708 41.3333H10.1875C8.28126 41.3333 6.45309 40.5761 5.10517 39.2282C3.75725 37.8802 3 36.0521 3 34.1458V10.1875C3 8.28126 3.75725 6.45309 5.10517 5.10517C6.45309 3.75725 8.28126 3 10.1875 3H19.7708C21.6771 3 23.5052 3.75725 24.8532 5.10517C26.2011 6.45309 26.9583 8.28126 26.9583 10.1875V12.5833" stroke="white" stroke-width="4.79167" stroke-linecap="round" stroke-linejoin="round"/>
</svg>
