<svg width="69" height="69" viewBox="0 0 69 69" fill="none" xmlns="http://www.w3.org/2000/svg">
<path fill-rule="evenodd" clip-rule="evenodd" d="M8.54883 13.2028C8.54883 10.8445 10.4607 8.93262 12.819 8.93262H55.5209C57.8794 8.93262 59.7911 10.8445 59.7911 13.2028V55.9047C59.7911 58.2631 57.8794 60.1749 55.5209 60.1749H38.2244V39.3399C38.2244 38.1234 38.6639 37.6971 38.9096 37.5221C39.0672 37.41 39.2297 37.3456 39.3538 37.3105C39.4142 37.2934 39.4597 37.2848 39.4824 37.2811L39.496 37.2791L39.4864 37.2801L39.4771 37.2809L39.4713 37.2814L39.468 37.2816L39.4663 37.2817C39.4663 37.2817 39.4646 37.2818 39.3669 35.8617C39.2693 34.4417 39.2674 34.4419 39.2674 34.4419L39.2656 34.442L39.2616 34.4423L39.2529 34.4429L39.2326 34.4447C39.2178 34.446 39.2001 34.4477 39.1802 34.45C39.1401 34.4544 39.0898 34.461 39.0309 34.4705C38.9133 34.4893 38.7583 34.5203 38.5781 34.5714C38.2211 34.6725 37.7421 34.8587 37.2582 35.2033C36.2209 35.942 35.3776 37.2548 35.3776 39.3399V60.1749H32.7637V39.3399C32.7637 37.2548 31.9203 35.942 30.8829 35.2033C30.399 34.8587 29.9201 34.6725 29.5632 34.5714C29.3829 34.5203 29.2279 34.4893 29.1104 34.4705C29.0513 34.461 29.0011 34.4544 28.9611 34.45C28.941 34.4477 28.9235 34.446 28.9085 34.4447L28.8882 34.4429L28.8795 34.4423L28.8757 34.442L28.8738 34.4419C28.8738 34.4419 28.872 34.4417 28.7743 35.8617C28.6767 37.2818 28.675 37.2817 28.675 37.2817L28.6732 37.2816L28.67 37.2814L28.6641 37.2809L28.6547 37.2801L28.6452 37.2791L28.6587 37.2811C28.6815 37.2848 28.727 37.2934 28.7874 37.3105C28.9114 37.3456 29.0741 37.41 29.2316 37.5221C29.4772 37.6971 29.9169 38.1234 29.9169 39.3399V60.1749H12.819C10.4607 60.1749 8.54883 58.2631 8.54883 55.9047V13.2028ZM46.9297 44.87C59.2037 39.6932 54.3597 22.2195 45.8394 19.3324C42.305 18.1346 38.4047 22.108 38.4298 24.5752C38.4406 25.6419 38.991 26.682 39.5645 27.7656C40.3173 29.1881 41.11 30.6858 40.7734 32.4174C40.1804 35.4679 39.5163 40.6149 41.2276 43.0581C42.9391 45.5013 44.6601 45.8274 46.9297 44.87ZM21.2115 44.87C8.93753 39.6932 13.7815 22.2195 22.3017 19.3324C25.8363 18.1346 29.7364 22.108 29.7115 24.5752C29.7007 25.6419 29.1502 26.682 28.5767 27.7656C27.8239 29.1881 27.0312 30.6858 27.3678 32.4174C27.9607 35.4679 28.625 40.6149 26.9135 43.0581C25.2021 45.5013 23.4811 45.8274 21.2115 44.87Z" fill="black"/>
</svg>
