<svg width="15" height="18" viewBox="0 0 15 18" fill="none" xmlns="http://www.w3.org/2000/svg">
<path d="M5.82402 1.78104C5.94578 1.47641 6.15466 1.21553 6.42386 1.03183C6.69307 0.848137 7.01033 0.75 7.335 0.75C7.65967 0.75 7.97693 0.848137 8.24614 1.03183C8.51534 1.21553 8.72422 1.47641 8.84599 1.78104C10.0511 2.11652 11.1142 2.84316 11.8718 3.84937C12.6295 4.85559 13.0399 6.08572 13.0399 7.35085V11.2255L14.533 13.4923C14.6149 13.6166 14.6619 13.761 14.669 13.9101C14.6762 14.0593 14.6432 14.2076 14.5736 14.3393C14.504 14.471 14.4004 14.5811 14.2738 14.6578C14.1472 14.7346 14.0024 14.7751 13.8549 14.7751H10.1589C10.0608 15.4623 9.72133 16.0908 9.20271 16.5453C8.68408 16.9998 8.02102 17.25 7.335 17.25C6.64898 17.25 5.98592 16.9998 5.46729 16.5453C4.94867 16.0908 4.6092 15.4623 4.51107 14.7751H0.815109C0.667561 14.7751 0.522775 14.7346 0.396198 14.6578C0.269621 14.5811 0.166001 14.471 0.0963931 14.3393C0.0267853 14.2076 -0.00619858 14.0593 0.000959931 13.9101C0.00811845 13.761 0.0551509 13.6166 0.13704 13.4923L1.6301 11.2255V7.35085C1.6301 4.69133 3.40677 2.45087 5.82402 1.78104ZM6.18261 14.7751C6.26678 15.0165 6.42285 15.2255 6.62932 15.3734C6.83579 15.5213 7.08249 15.6007 7.33541 15.6007C7.58833 15.6007 7.83503 15.5213 8.04149 15.3734C8.24796 15.2255 8.40404 15.0165 8.48821 14.7751H6.18179H6.18261ZM7.335 3.22629C6.25426 3.22629 5.21779 3.66084 4.45359 4.43435C3.68939 5.20785 3.26007 6.25695 3.26007 7.35085V11.4754C3.2601 11.6384 3.21246 11.7977 3.12315 11.9332L2.33832 13.1252H12.3309L11.546 11.9332C11.457 11.7976 11.4097 11.6383 11.4099 11.4754V7.35085C11.4099 6.25695 10.9806 5.20785 10.2164 4.43435C9.45221 3.66084 8.41574 3.22629 7.335 3.22629Z" fill="#285430"/>
</svg>
