<svg width="36" height="37" viewBox="0 0 36 37" fill="none" xmlns="http://www.w3.org/2000/svg">
<g clip-path="url(#clip0_63_1392)">
<path d="M32.8508 28.1411L32.5108 27.8411C31.5462 26.9817 30.7019 25.9962 30.0008 24.9111C29.235 23.4137 28.776 21.7784 28.6508 20.1011V15.1611C28.6574 12.5267 27.7018 9.98061 25.9635 8.00111C24.2252 6.0216 21.8239 4.74499 19.2108 4.41113V3.12113C19.2108 2.76707 19.0701 2.42751 18.8198 2.17715C18.5694 1.92678 18.2298 1.78613 17.8758 1.78613C17.5217 1.78613 17.1822 1.92678 16.9318 2.17715C16.6814 2.42751 16.5408 2.76707 16.5408 3.12113V4.43113C13.951 4.78906 11.5788 6.07339 9.86331 8.04624C8.14787 10.0191 7.20551 12.5468 7.21078 15.1611V20.1011C7.08554 21.7784 6.62656 23.4137 5.86078 24.9111C5.17166 25.9935 4.34098 26.9789 3.39078 27.8411L3.05078 28.1411V30.9611H32.8508V28.1411Z" fill="#7EB36A"/>
<path d="M15.3203 32.0112C15.408 32.6451 15.7221 33.2258 16.2046 33.6462C16.6871 34.0665 17.3054 34.2981 17.9453 34.2981C18.5852 34.2981 19.2035 34.0665 19.686 33.6462C20.1685 33.2258 20.4826 32.6451 20.5703 32.0112H15.3203Z" fill="black"/>
</g>
<defs>
<clipPath id="clip0_63_1392">
<rect width="36" height="36" fill="white" transform="translate(0 0.0112305)"/>
</clipPath>
</defs>
</svg>
