<svg width="70" height="69" viewBox="0 0 70 69" fill="none" xmlns="http://www.w3.org/2000/svg">
<path fill-rule="evenodd" clip-rule="evenodd" d="M9.49023 12.8942C9.49023 10.5359 11.4021 8.62402 13.7604 8.62402H56.4623C58.8208 8.62402 60.7325 10.5359 60.7325 12.8942V55.5961C60.7325 57.9546 58.8208 59.8663 56.4623 59.8663H13.7604C11.4021 59.8663 9.49023 57.9546 9.49023 55.5961V12.8942ZM28.3918 38.7048L34.1144 46.1002L28.3918 53.4075L21.1725 47.861L28.3918 38.7048ZM28.1276 16.6067L25.0463 20.6566C22.5811 23.914 22.5811 28.4041 25.0463 31.5735L42.2141 53.4075L49.3454 47.861L42.4782 39.057L34.2024 28.4921L30.6808 25.4254C31.2971 25.0732 32.0014 24.8092 32.7057 24.8092H37.9001C38.6044 24.8092 39.3087 24.9853 39.925 25.3374C39.925 25.4254 40.0131 25.4254 40.0131 25.4254L36.4915 28.4921L42.2141 35.8875L45.5597 31.6616C48.0247 28.4921 48.0247 24.002 45.5597 20.7445L42.3902 16.6067C41.862 15.9023 41.1575 15.2861 40.3653 14.9339C39.5729 14.4937 38.6925 14.3176 37.8121 14.3176H32.7057C30.945 14.3176 29.2722 15.198 28.1276 16.6067ZM29.4483 22.4613C29.4262 22.4173 29.4043 22.3733 29.3601 22.3293C28.3918 20.9206 28.5679 20.4072 29.5364 19.0866C30.3286 18.1181 31.4732 17.5018 32.7057 17.5018H37.8121C38.4283 17.5018 39.0447 17.6778 39.5729 17.942C40.1011 18.2062 40.6293 18.6463 40.9815 19.0866C41.4217 19.6148 41.6859 20.2311 41.7739 20.8473C41.9599 21.5915 41.8402 21.7169 41.5379 22.0334C41.4109 22.1664 41.2518 22.333 41.0696 22.5934C40.9815 22.5494 40.8714 22.4834 40.7614 22.4173C40.6514 22.3513 40.5414 22.2852 40.4532 22.2412C39.661 21.801 38.7805 21.6249 37.9001 21.6249H32.7938C31.9134 21.6249 31.0329 21.8891 30.2407 22.2412C29.9765 22.3293 29.7124 22.4173 29.5364 22.5934C29.4922 22.5494 29.4703 22.5054 29.4483 22.4613Z" fill="black"/>
</svg>
