<svg width="70" height="69" viewBox="0 0 70 69" fill="none" xmlns="http://www.w3.org/2000/svg">
<path fill-rule="evenodd" clip-rule="evenodd" d="M13.5202 8.7168C11.1618 8.7168 9.25 10.6286 9.25 12.987V55.6889C9.25 58.0473 11.1618 59.9591 13.5202 59.9591H56.2221C58.5805 59.9591 60.4923 58.0473 60.4923 55.6889V12.987C60.4923 10.6286 58.5805 8.7168 56.2221 8.7168H13.5202ZM34.9274 21.5274C44.4791 21.5274 56.2221 34.3379 56.2221 34.3379C56.2221 34.3379 44.4791 47.1485 34.9274 47.1485C25.3755 47.1485 13.5202 34.3379 13.5202 34.3379C13.5202 34.3379 25.3755 21.5274 34.9274 21.5274ZM17.548 34.3379C18.7542 33.192 20.4335 31.6866 22.379 30.188C23.1136 29.6222 23.8785 29.0631 24.6637 28.5282C23.6865 30.2414 23.1281 32.2245 23.1281 34.3379C23.1281 36.4514 23.6865 38.4345 24.6637 40.1477C23.8785 39.6128 23.1136 39.0537 22.379 38.4879C20.4335 36.9893 18.7542 35.4839 17.548 34.3379ZM46.6142 34.3379C46.6142 32.1912 46.0381 30.1791 45.0322 28.4475C45.8511 29.005 46.6483 29.5899 47.412 30.1822C49.3478 31.6835 51.0163 33.1915 52.2124 34.3379C51.0163 35.4842 49.3478 36.9924 47.412 38.4937C46.6483 39.086 45.8511 39.6708 45.0322 40.2284C46.0381 38.4968 46.6142 36.4847 46.6142 34.3379ZM34.8711 43.2342C39.7844 43.2342 43.7674 39.2512 43.7674 34.3379C43.7674 29.4247 39.7844 25.4417 34.8711 25.4417C29.9579 25.4417 25.9749 29.4247 25.9749 34.3379C25.9749 39.2512 29.9579 43.2342 34.8711 43.2342ZM40.2089 34.3379C40.2089 37.2859 37.8191 39.6757 34.8711 39.6757C31.9232 39.6757 29.5334 37.2859 29.5334 34.3379C29.5334 31.3899 31.9232 29.0002 34.8711 29.0002C36.1966 29.0002 37.4092 29.4833 38.3425 30.283C38.1065 30.1462 37.8324 30.0678 37.54 30.0678C36.6557 30.0678 35.9387 30.7847 35.9387 31.6691C35.9387 32.5534 36.6557 33.2704 37.54 33.2704C38.4244 33.2704 39.1413 32.5534 39.1413 31.6691C39.1413 31.3767 39.0629 31.1026 38.9261 30.8666C39.7258 31.7999 40.2089 33.0125 40.2089 34.3379Z" fill="black"/>
</svg>
