<svg width="70" height="69" viewBox="0 0 70 69" fill="none" xmlns="http://www.w3.org/2000/svg">
<path fill-rule="evenodd" clip-rule="evenodd" d="M13.5436 8.93262C11.1853 8.93262 9.27344 10.8445 9.27344 13.2028V55.9047C9.27344 58.2631 11.1853 60.1749 13.5436 60.1749H56.2455C58.604 60.1749 60.5157 58.2631 60.5157 55.9047V13.2028C60.5157 10.8445 58.604 8.93262 56.2455 8.93262H13.5436ZM25.2867 17.3846C25.2867 16.5119 26.0899 15.861 26.9476 16.0216C32.9138 17.1376 36.8731 17.151 42.8403 16.0253C43.698 15.8634 44.5025 16.5136 44.5025 17.3866C44.5025 18.1461 45.1183 18.7617 45.8778 18.7617H46.2818C47.0679 18.7617 47.7052 19.399 47.7052 20.1851V21.4292C47.7052 22.2152 47.0679 22.8526 46.2818 22.8526H45.9259C45.1398 22.8526 44.5025 23.4898 44.5025 24.276V24.8267C44.5025 25.4718 44.067 26.0384 43.4412 26.1949C37.0849 27.7845 33.0109 27.7829 26.3633 26.187C25.7303 26.0352 25.2867 25.4649 25.2867 24.814V24.276C25.2867 23.4898 24.6494 22.8526 23.8633 22.8526H23.5074C22.7213 22.8526 22.084 22.2152 22.084 21.4292V20.1851C22.084 19.399 22.7213 18.7617 23.5074 18.7617H23.9095C24.67 18.7617 25.2867 18.1451 25.2867 17.3846ZM28.4893 18.523C29.2754 18.523 29.9127 19.1603 29.9127 19.9464V23.1351C29.9127 23.9213 29.2754 24.5585 28.4893 24.5585C27.7032 24.5585 27.0659 23.9213 27.0659 23.1351V19.9464C27.0659 19.1603 27.7032 18.523 28.4893 18.523ZM26.9476 28.8321C26.0899 28.6716 25.2867 29.3225 25.2867 30.1952C25.2867 30.9557 24.67 31.5723 23.9095 31.5723H23.5074C22.7213 31.5723 22.084 32.2096 22.084 32.9957V34.2398C22.084 35.0258 22.7213 35.6632 23.5074 35.6632H23.8633C24.6494 35.6632 25.2867 36.3004 25.2867 37.0866V37.6246C25.2867 38.2755 25.7303 38.8457 26.3633 38.9976C33.0109 40.5935 37.0849 40.5951 43.4412 39.0054C44.067 38.849 44.5025 38.2824 44.5025 37.6373V37.0866C44.5025 36.3004 45.1398 35.6632 45.9259 35.6632H46.2818C47.0679 35.6632 47.7052 35.0258 47.7052 34.2398V32.9957C47.7052 32.2096 47.0679 31.5723 46.2818 31.5723H45.8778C45.1183 31.5723 44.5025 30.9567 44.5025 30.1972C44.5025 29.3242 43.698 28.674 42.8403 28.8358C36.8731 29.9616 32.9138 29.9482 26.9476 28.8321ZM29.9127 32.757C29.9127 31.9709 29.2754 31.3336 28.4893 31.3336C27.7032 31.3336 27.0659 31.9709 27.0659 32.757V35.9457C27.0659 36.7318 27.7032 37.3691 28.4893 37.3691C29.2754 37.3691 29.9127 36.7318 29.9127 35.9457V32.757ZM25.2867 43.0058C25.2867 42.1331 26.0899 41.4822 26.9476 41.6427C32.9138 42.7588 36.8731 42.7722 42.8403 41.6464C43.698 41.4846 44.5025 42.1348 44.5025 43.0078C44.5025 43.7673 45.1183 44.3829 45.8778 44.3829H46.2818C47.0679 44.3829 47.7052 45.0201 47.7052 45.8063V47.0503C47.7052 47.8363 47.0679 48.4737 46.2818 48.4737H45.9259C45.1398 48.4737 44.5025 49.111 44.5025 49.8971V50.4478C44.5025 51.0929 44.067 51.6596 43.4412 51.816C37.0849 53.4057 33.0109 53.4041 26.3633 51.8082C25.7303 51.6563 25.2867 51.0861 25.2867 50.4352V49.8971C25.2867 49.111 24.6494 48.4737 23.8633 48.4737H23.5074C22.7213 48.4737 22.084 47.8363 22.084 47.0503V45.8063C22.084 45.0201 22.7213 44.3829 23.5074 44.3829H23.9095C24.67 44.3829 25.2867 43.7663 25.2867 43.0058ZM28.4893 44.1442C29.2754 44.1442 29.9127 44.7814 29.9127 45.5676V48.7563C29.9127 49.5424 29.2754 50.1797 28.4893 50.1797C27.7032 50.1797 27.0659 49.5424 27.0659 48.7563V45.5676C27.0659 44.7814 27.7032 44.1442 28.4893 44.1442Z" fill="black"/>
</svg>
