<svg width="69" height="69" viewBox="0 0 69 69" fill="none" xmlns="http://www.w3.org/2000/svg">
<path fill-rule="evenodd" clip-rule="evenodd" d="M12.819 8.93359C10.4607 8.93359 8.54883 10.8454 8.54883 13.2038V55.9057C8.54883 58.2641 10.4607 60.1759 12.819 60.1759H55.5209C57.8794 60.1759 59.7911 58.2641 59.7911 55.9057V13.2038C59.7911 10.8454 57.8794 8.93359 55.5209 8.93359H12.819ZM39.9426 20.7162C39.9426 24.079 37.2165 26.8051 33.8536 26.8051C30.4908 26.8051 27.7647 24.079 27.7647 20.7162C27.7647 17.3533 30.4908 14.6272 33.8536 14.6272C37.2165 14.6272 39.9426 17.3533 39.9426 20.7162ZM39.3891 33.5723C41.3268 33.296 43.3613 32.878 45.608 32.3221C47.1343 31.9447 48.0655 30.4013 47.688 28.8751C47.3104 27.3488 45.7671 26.4176 44.2408 26.7952C40.0495 27.832 36.923 28.2894 33.8642 28.2777C30.7972 28.266 27.6602 27.7826 23.4354 26.7877C21.905 26.4273 20.3723 27.3757 20.0119 28.9061C19.6513 30.4364 20.5999 31.9693 22.1302 32.3297C24.3619 32.8552 26.3868 33.2649 28.3183 33.5436V35.6616H39.3891V33.5723ZM28.3183 37.8758V40.0237C28.3183 40.7249 28.9498 42.5256 30.8873 43.3885C31.1091 43.4871 31.3583 43.611 31.5824 43.7221L31.7142 43.7875C31.9893 43.9235 32.2558 44.0522 32.5252 44.1664C33.0871 44.4044 33.5252 44.5181 33.8537 44.5181C34.1821 44.5181 34.6203 44.4044 35.1822 44.1664C35.4516 44.0522 35.7179 43.9235 35.9932 43.7875L36.125 43.7221C36.3491 43.611 36.5983 43.4871 36.8201 43.3885C38.7576 42.5256 39.3891 40.7249 39.3891 40.0237V37.8758H28.3183ZM24.5262 48.9349C24.5262 46.4538 25.472 44.5737 27.1896 43.0786C27.7184 43.9725 28.5975 44.8717 29.9062 45.4665C29.7098 45.6523 29.5217 45.8676 29.344 46.1322C28.7901 46.9567 28.3143 47.9752 28.3143 48.9349C28.3143 49.8121 28.6741 50.5668 28.9468 51.1385L28.9666 51.1803C29.2677 51.812 29.4578 52.237 29.4578 52.6865C29.4578 53.6969 28.5895 54.4819 27.5638 54.4819C26.6078 54.4819 25.8514 53.8452 25.288 52.6128C24.7378 51.4093 24.5262 49.9244 24.5262 48.9349ZM37.8011 45.4659C39.1097 44.8711 39.9888 43.9719 40.5176 43.078C42.2352 44.5732 43.1811 46.4532 43.1811 48.9342C43.1811 49.9239 42.9694 51.4088 42.4193 52.6122C41.8559 53.8446 41.0994 54.4813 40.1434 54.4813C39.1177 54.4813 38.2493 53.6963 38.2493 52.6858C38.2493 52.2365 38.4396 51.8113 38.7405 51.1796L38.7604 51.1379C39.033 50.5661 39.393 49.8114 39.393 48.9342C39.393 47.9745 38.917 46.9561 38.3633 46.1315C38.1855 45.8669 37.9975 45.6517 37.8011 45.4659Z" fill="black"/>
</svg>
