<svg width="70" height="69" viewBox="0 0 70 69" fill="none" xmlns="http://www.w3.org/2000/svg">
<path fill-rule="evenodd" clip-rule="evenodd" d="M13.6413 8.78027C11.2829 8.78027 9.37109 10.6921 9.37109 13.0505V55.7524C9.37109 58.1108 11.2829 60.0226 13.6413 60.0226H56.3432C58.7016 60.0226 60.6134 58.1108 60.6134 55.7524V13.0505C60.6134 10.6921 58.7016 8.78027 56.3432 8.78027H13.6413ZM39.9741 24.4376C42.7256 24.4376 44.956 22.2072 44.956 19.4558C44.956 16.7043 42.7256 14.4739 39.9741 14.4739C37.2227 14.4739 34.9922 16.7043 34.9922 19.4558C34.9922 22.2072 37.2227 24.4376 39.9741 24.4376ZM29.6515 41.5184H25.4743L29.9528 45.8141L28.9677 49.1384C28.8955 49.3818 28.7911 49.6146 28.6573 49.8303L26.3088 53.6156C25.48 54.9516 23.7249 55.3627 22.3889 54.5338C21.0529 53.705 20.6418 51.9499 21.4707 50.6139L23.6174 47.1539L25.0763 42.2311L25.2571 41.5184H20.7583C19.186 41.5184 17.9115 42.7929 17.9115 44.3652V54.329H15.0647V44.3652C15.0647 41.2208 17.6138 38.6716 20.7583 38.6716H25.9468C25.9003 38.5908 25.8573 38.5068 25.818 38.42C24.4634 35.4203 25.424 32.2228 26.505 30.1311C27.0807 29.017 27.7926 28.0062 28.5285 27.2062C29.1634 26.5155 30.1538 25.6063 31.3599 25.2599C31.7458 25.1492 32.2326 25.0101 32.6866 24.9388C33.1659 24.8635 33.9567 24.8005 34.8122 25.1565C35.6634 25.5107 36.1693 26.1108 36.4364 26.4708C36.6569 26.768 36.8758 27.1327 37.0397 27.4057L37.0959 27.4992C37.3356 27.8968 37.5529 28.261 37.7542 28.5982V28.5984C38.2271 29.3905 38.6102 30.0327 38.9827 30.6047C39.5006 31.3996 39.8661 31.846 40.1856 32.1337C40.6384 32.541 41.2854 32.9252 43.5987 32.9787C45.1704 33.0152 46.4151 34.319 46.3787 35.8907C46.3428 37.4368 45.0809 38.6665 43.5437 38.6716H49.2262C52.3706 38.6716 54.9198 41.2208 54.9198 44.3652V54.329H52.073V44.3652C52.073 42.7929 50.7985 41.5184 49.2262 41.5184H37.7578L39.5428 43.2799C39.8023 43.5358 40.0101 43.8393 40.1552 44.1736L43.1079 50.9823C43.7333 52.4248 43.0712 54.1011 41.6287 54.7267C40.1862 55.3523 38.5097 54.69 37.8843 53.2475L35.1511 46.9451L29.6515 41.5184ZM34.8727 38.6716H43.5242C43.5052 38.6716 43.4859 38.6713 43.4667 38.6709C40.5582 38.6034 38.2932 38.0904 36.3768 36.3656C35.8461 35.8879 35.3837 35.3537 34.9632 34.7936L33.1895 37.0108L34.8727 38.6716Z" fill="black"/>
</svg>
