<svg width="70" height="69" viewBox="0 0 70 69" fill="none" xmlns="http://www.w3.org/2000/svg">
<path d="M24.376 17.1299C32.703 17.1367 31.9365 28.4625 31.9329 32.9932C31.9282 38.7755 33.3478 50.4462 28.887 54.8885C24.3414 59.4153 15.2557 61.6733 10.7169 57.894C6.17803 54.1147 13.7783 17.1212 24.376 17.1299Z" fill="black"/>
<path d="M45.6401 17.1465C37.3133 17.1397 38.0611 28.4668 38.0574 32.9973C38.0526 38.7797 36.6139 50.448 41.0673 54.8977C45.6055 59.4319 54.6875 61.7047 59.2326 57.9329C63.7775 54.1611 56.2379 17.1552 45.6401 17.1465Z" fill="black"/>
<path fill-rule="evenodd" clip-rule="evenodd" d="M33.595 8.6045C33.595 8.6045 33.595 8.60433 35.0184 8.6055C36.4418 8.60666 36.4418 8.60684 36.4418 8.60684L36.4249 29.236C36.4225 32.227 35.0896 33.9413 33.5807 34.8201C32.8727 35.2325 32.1773 35.4323 31.6676 35.531C31.41 35.5809 31.1915 35.6065 31.0307 35.6198C30.95 35.6265 30.8832 35.63 30.8322 35.632C30.8069 35.633 30.7854 35.6336 30.768 35.6339L30.7453 35.6341H30.7363H30.7307C30.7307 35.6341 30.729 35.6341 30.7302 34.2107C30.7313 32.7874 30.7297 32.7874 30.7297 32.7874H30.7283L30.7256 32.7875H30.7214H30.7168C30.7168 32.7875 30.7199 32.7875 30.7239 32.7872C30.7356 32.7868 30.7605 32.7856 30.7965 32.7827C30.8691 32.7767 30.984 32.7637 31.1265 32.7361C31.4168 32.6799 31.7886 32.5694 32.148 32.36C32.7736 31.9958 33.5764 31.2222 33.5781 29.2337L33.595 8.6045Z" fill="black"/>
<path fill-rule="evenodd" clip-rule="evenodd" d="M36.438 8.60684C36.438 8.60684 36.438 8.60666 35.0146 8.6055C33.5912 8.60433 33.5912 8.6045 33.5912 8.6045L33.5742 29.2337C33.5718 32.2247 34.9017 33.9412 36.4093 34.8224C37.1166 35.2359 37.8115 35.4369 38.3211 35.5364C38.5787 35.5867 38.7972 35.6128 38.9579 35.6263C39.0386 35.633 39.1055 35.6367 39.1564 35.6388C39.1818 35.6398 39.2033 35.6404 39.2206 35.6407L39.2433 35.6411H39.2523H39.2561H39.2578C39.2578 35.6411 39.2596 35.6411 39.2607 34.2177C39.2618 32.7943 39.2635 32.7943 39.2635 32.7943H39.265H39.2677L39.2719 32.7945H39.2765C39.2765 32.7945 39.2751 32.7945 39.2692 32.7942C39.2576 32.7938 39.2328 32.7925 39.1968 32.7895C39.1242 32.7834 39.0093 32.7703 38.867 32.7424C38.5766 32.6857 38.205 32.5746 37.846 32.3647C37.221 31.9994 36.4193 31.2245 36.421 29.236L36.438 8.60684Z" fill="black"/>
</svg>
