<svg width="15" height="18" viewBox="0 0 15 18" fill="none" xmlns="http://www.w3.org/2000/svg">
<path d="M10.595 0.75L14.67 4.875V16.4184C14.6708 16.5268 14.6506 16.6343 14.6104 16.7348C14.5701 16.8353 14.5108 16.9268 14.4356 17.004C14.3604 17.0812 14.271 17.1427 14.1723 17.1849C14.0737 17.2271 13.9678 17.2492 13.8607 17.25H0.809294C0.595257 17.2485 0.390398 17.1618 0.238972 17.0087C0.0875454 16.8555 0.00170714 16.6483 0 16.4316V1.5684C0 1.1163 0.364304 0.75 0.813368 0.75H10.595ZM9.77998 2.4H1.63V15.6H13.04V5.7H9.77998V2.4ZM8.14999 6.525V9.825H10.595V11.475H6.51999V6.525H8.14999Z" fill="#285430"/>
</svg>
