<svg width="80" height="80" viewBox="0 0 80 80" fill="none" xmlns="http://www.w3.org/2000/svg">
<path d="M67.7167 7.96667H63.7333V3.98333C63.7333 1.59333 62.14 0 59.75 0C57.36 0 55.7667 1.59333 55.7667 3.98333V7.96667H23.9V3.98333C23.9 1.59333 22.3067 0 19.9167 0C17.5267 0 15.9333 1.59333 15.9333 3.98333V7.96667H11.95C5.17833 7.96667 0 13.145 0 19.9167V23.9H79.6667V19.9167C79.6667 13.145 74.4883 7.96667 67.7167 7.96667ZM0 67.7167C0 74.4883 5.17833 79.6667 11.95 79.6667H67.7167C74.4883 79.6667 79.6667 74.4883 79.6667 67.7167V31.8667H0V67.7167ZM59.75 39.8333C62.14 39.8333 63.7333 41.4267 63.7333 43.8167C63.7333 46.2067 62.14 47.8 59.75 47.8C57.36 47.8 55.7667 46.2067 55.7667 43.8167C55.7667 41.4267 57.36 39.8333 59.75 39.8333ZM59.75 55.7667C62.14 55.7667 63.7333 57.36 63.7333 59.75C63.7333 62.14 62.14 63.7333 59.75 63.7333C57.36 63.7333 55.7667 62.14 55.7667 59.75C55.7667 57.36 57.36 55.7667 59.75 55.7667ZM39.8333 39.8333C42.2233 39.8333 43.8167 41.4267 43.8167 43.8167C43.8167 46.2067 42.2233 47.8 39.8333 47.8C37.4433 47.8 35.85 46.2067 35.85 43.8167C35.85 41.4267 37.4433 39.8333 39.8333 39.8333ZM39.8333 55.7667C42.2233 55.7667 43.8167 57.36 43.8167 59.75C43.8167 62.14 42.2233 63.7333 39.8333 63.7333C37.4433 63.7333 35.85 62.14 35.85 59.75C35.85 57.36 37.4433 55.7667 39.8333 55.7667ZM19.9167 39.8333C22.3067 39.8333 23.9 41.4267 23.9 43.8167C23.9 46.2067 22.3067 47.8 19.9167 47.8C17.5267 47.8 15.9333 46.2067 15.9333 43.8167C15.9333 41.4267 17.5267 39.8333 19.9167 39.8333ZM19.9167 55.7667C22.3067 55.7667 23.9 57.36 23.9 59.75C23.9 62.14 22.3067 63.7333 19.9167 63.7333C17.5267 63.7333 15.9333 62.14 15.9333 59.75C15.9333 57.36 17.5267 55.7667 19.9167 55.7667Z" fill="white" fill-opacity="0.82"/>
</svg>
