<svg width="56" height="65" viewBox="0 0 56 65" fill="none" xmlns="http://www.w3.org/2000/svg">
<path d="M52.1176 6.74925L38.2075 6.74932V2.78111C38.2075 1.68104 37.43 0.790039 36.4702 0.790039C35.5104 0.790039 34.7329 1.68104 34.7329 2.78111V6.74832H20.8349V2.78111C20.8349 1.68104 20.0575 0.790039 19.0976 0.790039C18.1378 0.790039 17.3604 1.68104 17.3604 2.78111V6.74832H3.47451C1.55571 6.74832 0 8.53132 0 10.7305V60.5072C0 62.7063 1.55571 64.4894 3.47451 64.4894H52.1176C54.0364 64.4894 55.5922 62.7063 55.5922 60.5072V10.7305C55.5922 8.53226 54.0364 6.74925 52.1176 6.74925ZM52.1176 60.5072H3.47451V10.7305H17.3604V12.7365C17.3604 13.8365 18.1378 14.7275 19.0976 14.7275C20.0575 14.7275 20.8349 13.8365 20.8349 12.7365V10.7315H34.7329V12.7375C34.7329 13.8375 35.5104 14.7285 36.4702 14.7285C37.43 14.7285 38.2075 13.8375 38.2075 12.7375V10.7315H52.1176V60.5072ZM39.9569 32.6332H43.4314C44.3903 32.6332 45.1686 31.7412 45.1686 30.6421V26.66C45.1686 25.5609 44.3903 24.6689 43.4314 24.6689H39.9569C38.9979 24.6689 38.2196 25.5609 38.2196 26.66V30.6421C38.2196 31.7412 38.9979 32.6332 39.9569 32.6332ZM39.9569 48.5608H43.4314C44.3903 48.5608 45.1686 47.6698 45.1686 46.5697V42.5875C45.1686 41.4885 44.3903 40.5965 43.4314 40.5965H39.9569C38.9979 40.5965 38.2196 41.4885 38.2196 42.5875V46.5697C38.2196 47.6707 38.9979 48.5608 39.9569 48.5608ZM29.5333 40.5965H26.0588C25.0999 40.5965 24.3216 41.4885 24.3216 42.5875V46.5697C24.3216 47.6698 25.0999 48.5608 26.0588 48.5608H29.5333C30.4923 48.5608 31.2706 47.6698 31.2706 46.5697V42.5875C31.2706 41.4895 30.4923 40.5965 29.5333 40.5965ZM29.5333 24.6689H26.0588C25.0999 24.6689 24.3216 25.5609 24.3216 26.66V30.6421C24.3216 31.7412 25.0999 32.6332 26.0588 32.6332H29.5333C30.4923 32.6332 31.2706 31.7412 31.2706 30.6421V26.66C31.2706 25.5599 30.4923 24.6689 29.5333 24.6689ZM15.6353 24.6689H12.1608C11.2018 24.6689 10.4235 25.5609 10.4235 26.66V30.6421C10.4235 31.7412 11.2018 32.6332 12.1608 32.6332H15.6353C16.5943 32.6332 17.3725 31.7412 17.3725 30.6421V26.66C17.3725 25.5599 16.5943 24.6689 15.6353 24.6689ZM15.6353 40.5965H12.1608C11.2018 40.5965 10.4235 41.4885 10.4235 42.5875V46.5697C10.4235 47.6698 11.2018 48.5608 12.1608 48.5608H15.6353C16.5943 48.5608 17.3725 47.6698 17.3725 46.5697V42.5875C17.3725 41.4895 16.5943 40.5965 15.6353 40.5965Z" fill="#7EB36A"/>
</svg>
