<svg width="80" height="107" viewBox="0 0 80 107" fill="none" xmlns="http://www.w3.org/2000/svg">
<path d="M0 0H80V106.667H0V0ZM73.3333 100V6.66667H6.66667V100H73.3333ZM40 26.6667V33.3333H13.3333V26.6667H40ZM40 53.3333V60H13.3333V53.3333H40ZM40 80V86.6667H13.3333V80H40ZM65.6771 22.3438L53.3333 34.6875L44.3229 25.6771L49.0104 20.9896L53.3333 25.3125L60.9896 17.6562L65.6771 22.3438ZM65.6771 49.0104L53.3333 61.3542L44.3229 52.3438L49.0104 47.6563L53.3333 51.9792L60.9896 44.3229L65.6771 49.0104ZM65.6771 75.6771L53.3333 88.0208L44.3229 79.0104L49.0104 74.3229L53.3333 78.6458L60.9896 70.9896L65.6771 75.6771Z" fill="white" fill-opacity="0.49"/>
</svg>
