<svg width="70" height="69" viewBox="0 0 70 69" fill="none" xmlns="http://www.w3.org/2000/svg">
<path fill-rule="evenodd" clip-rule="evenodd" d="M13.7018 8.80078C11.3435 8.80078 9.43164 10.7126 9.43164 13.071V55.7729C9.43164 58.1313 11.3435 60.0431 13.7018 60.0431H56.4037C58.7622 60.0431 60.6739 58.1313 60.6739 55.7729V13.071C60.6739 10.7126 58.7622 8.80078 56.4037 8.80078H13.7018ZM27.6975 31.3139C29.1699 29.8414 29.6674 27.7633 29.1897 25.8815H29.3569C30.1446 25.8815 30.7803 26.518 30.7803 27.3025V38.265C30.5389 38.3942 30.3079 38.536 30.0893 38.6904C28.7941 39.6051 27.9358 40.9613 27.9358 42.7591C27.9358 42.8223 27.9365 42.8853 27.9381 42.9482L27.9385 42.9623C28.03 46.4123 30.4421 49.2663 33.6271 49.9324V52.9261C33.6271 53.7122 34.2644 54.3495 35.0505 54.3495C35.8367 54.3495 36.4739 53.7122 36.4739 52.9261V49.9334C39.6612 49.269 42.0755 46.4139 42.1671 42.9623C42.1689 42.8948 42.1698 42.827 42.1698 42.7591C42.1698 40.657 40.9962 39.1586 39.323 38.2638V27.3025C39.323 26.518 39.9587 25.8815 40.7464 25.8815H40.9138C40.4361 27.7633 40.9334 29.8414 42.4058 31.3139C44.6293 33.5374 48.2343 33.5374 50.4578 31.3139C52.2487 29.5229 53.5615 27.064 53.5545 24.458C53.5615 21.8519 52.2489 19.3746 50.4579 17.5837C48.2344 15.3602 44.6294 15.3602 42.4059 17.5837C40.9287 19.0609 40.4329 21.1482 40.9186 23.0348H40.7464C38.3895 23.0348 36.4762 24.9427 36.4762 27.3025V37.3675C35.5379 37.2357 34.5653 37.2358 33.6271 37.3678V27.3025C33.6271 24.9427 31.7138 23.0348 29.3569 23.0348H29.1847C29.6705 21.1482 29.1747 19.0609 27.6974 17.5837C25.4739 15.3602 21.8689 15.3602 19.6454 17.5837C17.8545 19.3746 16.5417 21.8519 16.5486 24.458C16.5417 27.064 17.8546 29.5229 19.6455 31.3139C21.869 33.5374 25.474 33.5374 27.6975 31.3139ZM35.0528 47.2325C32.8307 47.2325 30.8892 45.4076 30.7869 42.9623H39.3187C39.2164 45.4076 37.2749 47.2325 35.0528 47.2325ZM26.5103 23.0118C25.7199 23.0118 25.079 22.3712 25.079 21.5808C25.079 20.7946 24.4418 20.1574 23.6556 20.1574C22.8696 20.1574 22.2323 20.7946 22.2323 21.5808C22.2323 22.6776 22.6452 23.6781 23.3239 24.4352C22.6452 25.1925 22.2323 26.1928 22.2323 27.2897C22.2323 28.0759 22.8696 28.7131 23.6556 28.7131C24.4418 28.7131 25.079 28.0759 25.079 27.2897C25.079 26.4994 25.7199 25.8586 26.5103 25.8586C27.2963 25.8586 27.9337 25.2214 27.9337 24.4352C27.9337 23.6491 27.2963 23.0118 26.5103 23.0118ZM45.0243 21.5808C45.0243 22.3712 44.3834 23.0118 43.5932 23.0118C42.807 23.0118 42.1698 23.6491 42.1698 24.4352C42.1698 25.2214 42.807 25.8586 43.5932 25.8586C44.3834 25.8586 45.0243 26.4994 45.0243 27.2897C45.0243 28.0759 45.6615 28.7131 46.4477 28.7131C47.2338 28.7131 47.8711 28.0759 47.8711 27.2897C47.8711 26.1928 47.4581 25.1925 46.7794 24.4352C47.4581 23.6781 47.8711 22.6776 47.8711 21.5808C47.8711 20.7946 47.2338 20.1574 46.4477 20.1574C45.6615 20.1574 45.0243 20.7946 45.0243 21.5808Z" fill="black"/>
</svg>
